# xmcd
# 
# Track frame offsets:
#     150
#     30307
#     54702
#     72967
#     90420
#     114845
#     134380
#     156897
# 
# Disc length: 2395
# 
# Revision: 6
# Processed by: cddbd v1.5.2PL0 Copyright (c) Steve Scherf et al.
# Submitted via: fre:ac v1.0.31
# 
DISCID=5e095908
DTITLE=Chaka Khan - Chaka Khan
DYEAR=1982
DGENRE=R&B
TTITLE0=Tearin' It Up
TTITLE1=Slow Dancin'
TTITLE2=Best In The West
TTITLE3=Got To Be There
TTITLE4=Be Bop Medley: Hot House - East Of Suez (Come On Sailor) - Epistrophy (I Wanna Play) - Yardbird Suite - Con Alma - Giant Steps
TTITLE5=Twisted
TTITLE6=So Not To Worry
TTITLE7=Pass It On (A Sure Thing) (Pasa Lo Esta Seguro)
EXTD=
EXTT0=
EXTT1=
EXTT2=
EXTT3=
EXTT4=Hot House\nEast Of Suez (Come On Sailor]\nEepistrophy (I Wanna Play]\nYardbird Suite\nCon Alma\nGiant Steps
EXTT5=
EXTT6=
EXTT7=
PLAYORDER=
